<svg width="118" height="24" viewBox="0 0 118 24" fill="none" xmlns="http://www.w3.org/2000/svg">
<path d="M10.88 23.232C9.408 23.232 8.01066 23.0187 6.688 22.592C5.38666 22.1653 4.23466 21.4933 3.232 20.576C2.22933 19.6587 1.44 18.4747 0.863998 17.024C0.287998 15.552 -2.38419e-06 13.8027 -2.38419e-06 11.776V11.136C-2.38419e-06 9.17334 0.287998 7.48801 0.863998 6.08001C1.44 4.67201 2.22933 3.52001 3.232 2.62401C4.23466 1.72801 5.38666 1.06668 6.688 0.640009C8.01066 0.213341 9.408 7.62939e-06 10.88 7.62939e-06C12.3733 7.62939e-06 13.7707 0.213341 15.072 0.640009C16.3733 1.06668 17.5253 1.72801 18.528 2.62401C19.5307 3.52001 20.32 4.67201 20.896 6.08001C21.472 7.48801 21.76 9.17334 21.76 11.136V11.776C21.76 13.8027 21.472 15.552 20.896 17.024C20.32 18.4747 19.5307 19.6587 18.528 20.576C17.5253 21.4933 16.3733 22.1653 15.072 22.592C13.7707 23.0187 12.3733 23.232 10.88 23.232ZM10.848 18.432C11.7227 18.432 12.5333 18.24 13.28 17.856C14.0267 17.4507 14.624 16.7787 15.072 15.84C15.5413 14.88 15.776 13.5253 15.776 11.776V11.136C15.776 9.47201 15.5413 8.18134 15.072 7.26401C14.624 6.34667 14.0267 5.70668 13.28 5.34401C12.5333 4.98134 11.7227 4.80001 10.848 4.80001C10.016 4.80001 9.22666 4.98134 8.48 5.34401C7.73333 5.70668 7.12533 6.34667 6.656 7.26401C6.18666 8.18134 5.952 9.47201 5.952 11.136V11.776C5.952 13.5253 6.18666 14.88 6.656 15.84C7.12533 16.7787 7.73333 17.4507 8.48 17.856C9.22666 18.24 10.016 18.432 10.848 18.432ZM34.865 23.232C32.881 23.232 31.153 22.8907 29.681 22.208C28.2303 21.504 27.0997 20.4587 26.289 19.072C25.4997 17.664 25.105 15.9253 25.105 13.856V0.416008H30.865V13.184C30.865 14.912 31.1637 16.224 31.761 17.12C32.3583 17.9947 33.393 18.432 34.865 18.432C36.3797 18.432 37.425 17.9947 38.001 17.12C38.577 16.224 38.865 14.9227 38.865 13.216V0.416008H44.625V13.856C44.625 15.9253 44.2303 17.664 43.441 19.072C42.6517 20.4587 41.5317 21.504 40.081 22.208C38.6303 22.8907 36.8917 23.232 34.865 23.232ZM48.8 22.816V0.416008H58.56C60.4373 0.416008 61.9947 0.725342 63.232 1.34401C64.4907 1.96268 65.44 2.82668 66.08 3.93601C66.72 5.04534 67.04 6.36801 67.04 7.90401C67.04 9.50401 66.656 10.88 65.888 12.032C65.1413 13.1627 64.0107 13.9947 62.496 14.528L67.68 22.816H61.28L56.928 15.136H54.56V22.816H48.8ZM54.56 10.656H57.28C58.816 10.656 59.8613 10.432 60.416 9.98401C60.992 9.51468 61.28 8.82134 61.28 7.90401C61.28 6.98668 60.992 6.30401 60.416 5.85601C59.8613 5.38667 58.816 5.15201 57.28 5.15201H54.56V10.656ZM80.0212 23.232C78.0372 23.232 76.3092 22.8907 74.8372 22.208C73.3866 21.504 72.2559 20.4587 71.4452 19.072C70.6559 17.664 70.2612 15.9253 70.2612 13.856V0.416008H76.0212V13.184C76.0212 14.912 76.3199 16.224 76.9172 17.12C77.5146 17.9947 78.5492 18.432 80.0212 18.432C81.5359 18.432 82.5812 17.9947 83.1572 17.12C83.7332 16.224 84.0212 14.9227 84.0212 13.216V0.416008H89.7812V13.856C89.7812 15.9253 89.3866 17.664 88.5972 19.072C87.8079 20.4587 86.6879 21.504 85.2372 22.208C83.7866 22.8907 82.0479 23.232 80.0212 23.232ZM93.9562 22.816V0.416008H99.8442L106.052 11.776L112.196 0.416008H117.956V22.816H112.196V9.98401L107.556 18.496H104.356L99.7162 9.98401V22.816H93.9562Z" fill="white"/>
</svg>
